<?xml version="1.0" encoding="utf-8"?>
<!-- Generator: Adobe Illustrator 24.0.0, SVG Export Plug-In . SVG Version: 6.00 Build 0)  -->
<svg version="1.1" id="Layer_1" xmlns="http://www.w3.org/2000/svg" xmlns:xlink="http://www.w3.org/1999/xlink" x="0px" y="0px"
	 viewBox="0 0 1000 1000" style="enable-background:new 0 0 1000 1000;" xml:space="preserve">
<style type="text/css">
	.st0{fill:#3366FF;}
</style>
<g>
	<g>
		<path class="st0" d="M827.39,914.64c-35.71,0-71.16-11.17-101.35-33.13l-541.97-394.2l49.19-67.62l541.97,394.2
			c27.58,20.07,62.21,22.81,92.6,7.33c30.4-15.48,48.55-45.08,48.55-79.19v-497.1c0-46.93-38.18-85.1-85.11-85.1V76.2
			c93.04,0,168.73,75.69,168.73,168.72v497.1c0,65.22-36.1,124.12-94.22,153.71C880.91,908.39,854.08,914.64,827.39,914.64z"/>
	</g>
	<g>
		<path class="st0" d="M168.73,914.75C75.69,914.75,0,839.06,0,746.02v-497.1C0,183.7,36.1,124.81,94.22,95.21
			c58.14-29.59,126.99-24.15,179.74,14.22l541.97,394.2l-49.19,67.62l-541.97-394.2c-27.58-20.06-62.21-22.8-92.6-7.32
			c-30.4,15.48-48.55,45.08-48.55,79.19v497.1c0,46.93,38.18,85.1,85.11,85.1V914.75z"/>
	</g>
</g>
</svg>
